<svg width="1100" height="520" viewBox="0 0 1100 520" fill="none" xmlns="http://www.w3.org/2000/svg">
  <defs>
    <linearGradient id="bg" x1="0" y1="0" x2="1100" y2="520" gradientUnits="userSpaceOnUse">
      <stop stop-color="#101114"/>
      <stop offset="0.45" stop-color="#18251b"/>
      <stop offset="1" stop-color="#2b2115"/>
    </linearGradient>
    <radialGradient id="bottleGlow" cx="0" cy="0" r="1" gradientUnits="userSpaceOnUse" gradientTransform="translate(216 235) rotate(90) scale(150)">
      <stop stop-color="#90ffad" stop-opacity="0.9"/>
      <stop offset="0.55" stop-color="#37b46f" stop-opacity="0.45"/>
      <stop offset="1" stop-color="#10261a" stop-opacity="0"/>
    </radialGradient>
    <filter id="soft" x="-20%" y="-20%" width="140%" height="140%">
      <feGaussianBlur stdDeviation="5"/>
    </filter>
  </defs>

  <rect width="1100" height="520" rx="28" fill="url(#bg)"/>
  <rect x="36" y="36" width="1028" height="448" rx="22" stroke="#8fa889" stroke-opacity="0.35"/>

  <circle cx="216" cy="235" r="154" fill="url(#bottleGlow)"/>
  <path d="M184 126h78v41c0 17 18 28 32 42 29 29 48 71 48 120 0 67-45 112-101 112h-54c-56 0-101-45-101-112 0-49 19-91 48-120 14-14 32-25 32-42v-41Z" fill="#142117" stroke="#91f7ad" stroke-width="5"/>
  <rect x="169" y="101" width="107" height="38" rx="10" fill="#223025" stroke="#91f7ad" stroke-width="5"/>
  <path d="M127 334c41 30 135 34 176 0" stroke="#91f7ad" stroke-width="7" stroke-linecap="round"/>
  <path d="M145 371c35 17 104 20 140 0" stroke="#91f7ad" stroke-opacity="0.55" stroke-width="5" stroke-linecap="round"/>

  <g opacity="0.95">
    <path d="M692 321c-50 20-86 62-91 120h294c-7-62-43-103-95-121l-54 40-54-39Z" fill="#26231f" stroke="#d8c28a" stroke-width="4"/>
    <circle cx="746" cy="218" r="72" fill="#d4b27e" stroke="#f0d69d" stroke-width="4"/>
    <path d="M686 218c28-54 107-66 139-9-3-62-45-94-91-92-52 2-87 40-89 91 12-6 25-9 41-10Z" fill="#151517"/>
    <path d="M681 248c55 9 103 4 143-18-2 68-28 105-79 105-44 0-69-32-64-87Z" fill="#d4b27e"/>
    <path d="M705 258c17 12 37 12 60 0" stroke="#3a2419" stroke-width="5" stroke-linecap="round"/>
    <path d="M791 257c13 10 23 10 34 0" stroke="#3a2419" stroke-width="5" stroke-linecap="round"/>
    <path d="M734 299c12 9 28 9 41 0" stroke="#3a2419" stroke-width="4" stroke-linecap="round"/>
  </g>

  <g filter="url(#soft)" opacity="0.35">
    <path d="M499 365c32-42 65-42 98 0M884 363c29-45 59-45 92 0" stroke="#9fb09f" stroke-width="16" stroke-linecap="round"/>
  </g>
  <g opacity="0.72">
    <path d="M505 394c26-35 54-35 82 0" stroke="#788078" stroke-width="9" stroke-linecap="round"/>
    <path d="M896 394c26-35 54-35 82 0" stroke="#788078" stroke-width="9" stroke-linecap="round"/>
    <circle cx="546" cy="323" r="27" fill="#252a27" stroke="#7f8a7f" stroke-width="4"/>
    <circle cx="937" cy="323" r="27" fill="#252a27" stroke="#7f8a7f" stroke-width="4"/>
  </g>

  <text x="397" y="118" fill="#e8f4e8" font-family="Georgia, 'Times New Roman', serif" font-size="62" font-weight="700">HanLi.skill</text>
  <text x="400" y="162" fill="#b8d1bd" font-family="Arial, sans-serif" font-size="20">凡人修仙传 · 韩老魔生存操作系统</text>

  <rect x="397" y="199" width="430" height="70" rx="14" fill="#10140f" stroke="#9bb684" stroke-opacity="0.45"/>
  <text x="423" y="244" fill="#f3e4b7" font-family="Arial, sans-serif" font-size="30" font-weight="700">道友请了，韩某不善杀伐。</text>

  <rect x="397" y="292" width="356" height="49" rx="12" fill="#151b15" stroke="#8aa88c" stroke-opacity="0.35"/>
  <text x="421" y="324" fill="#cfdccb" font-family="Arial, sans-serif" font-size="20">眉头一皱，退至众人身后。</text>

  <path d="M400 378h328" stroke="#8aa88c" stroke-opacity="0.42"/>
  <text x="401" y="413" fill="#aebdab" font-family="Arial, sans-serif" font-size="18">小绿瓶在手，能不出手就不出手。</text>
  <text x="401" y="443" fill="#aebdab" font-family="Arial, sans-serif" font-size="18">若非要出手，便要留后手。</text>
</svg>
