<svg width="960" height="420" viewBox="0 0 960 420" fill="none" xmlns="http://www.w3.org/2000/svg">
  <defs>
    <linearGradient id="bg" x1="0" y1="0" x2="960" y2="420" gradientUnits="userSpaceOnUse">
      <stop stop-color="#101820"/>
      <stop offset="0.45" stop-color="#18261f"/>
      <stop offset="1" stop-color="#2b2618"/>
    </linearGradient>
    <radialGradient id="bottle" cx="0" cy="0" r="1" gradientUnits="userSpaceOnUse" gradientTransform="translate(714 169) rotate(90) scale(142 112)">
      <stop stop-color="#82f4b1"/>
      <stop offset="0.48" stop-color="#2f9f65"/>
      <stop offset="1" stop-color="#10261a" stop-opacity="0"/>
    </radialGradient>
  </defs>
  <rect width="960" height="420" rx="24" fill="url(#bg)"/>
  <rect x="44" y="44" width="872" height="332" rx="18" stroke="#8aa88c" stroke-opacity="0.35"/>
  <circle cx="714" cy="169" r="142" fill="url(#bottle)" opacity="0.95"/>
  <path d="M676 96h76v32c0 18 16 31 29 42 26 21 43 54 43 93 0 70-47 104-86 104h-72c-39 0-86-34-86-104 0-39 17-72 43-93 13-11 29-24 29-42V96Z" fill="#13231a" stroke="#9cf0b4" stroke-width="4"/>
  <path d="M657 91h115v31H657V91Z" fill="#223125" stroke="#9cf0b4" stroke-width="4"/>
  <path d="M626 264c40 28 113 30 156 0" stroke="#9cf0b4" stroke-width="5" stroke-linecap="round"/>
  <path d="M633 296c35 18 101 21 139 0" stroke="#9cf0b4" stroke-opacity="0.6" stroke-width="4" stroke-linecap="round"/>
  <text x="86" y="132" fill="#e8f4e8" font-family="Georgia, 'Times New Roman', serif" font-size="54" font-weight="700">HanLi.skill</text>
  <text x="88" y="184" fill="#b8d1bd" font-family="Arial, sans-serif" font-size="22">凡人流生存型思维顾问</text>
  <text x="88" y="236" fill="#f1dfb8" font-family="Arial, sans-serif" font-size="30" font-weight="700">先保命，再谋利，最后谈大道。</text>
  <text x="90" y="292" fill="#a7b8a8" font-family="Arial, sans-serif" font-size="18">风险 · 后手 · 退路 · 资源复利 · 低调伪装</text>
  <path d="M88 320h394" stroke="#8aa88c" stroke-opacity="0.45"/>
  <text x="90" y="350" fill="#d4decf" font-family="Arial, sans-serif" font-size="16">A survival-first perspective distilled from A Record of a Mortal's Journey to Immortality.</text>
</svg>
